Coordinates
version=1
nRows=12
nColumns=24
inDegrees=yes

Units are S.I. units (second, meters, Newtons, ...)
Angles are in degrees.

endheader
time	pelvis_tilt	pelvis_list	pelvis_rotation	pelvis_tx	pelvis_ty	pelvis_tz	hip_flexion_r	hip_adduction_r	hip_rotation_r	knee_angle_r	ankle_angle_r	subtalar_angle_r	mtp_angle_r	hip_flexion_l	hip_adduction_l	hip_rotation_l	knee_angle_l	ankle_angle_l	subtalar_angle_l	mtp_angle_l	lumbar_extension	lumbar_bending	lumbar_rotation
      1.12883333	      0.42407815	     -1.00257784	     -2.73668113	     -0.03998688	      0.97577913	      0.32689712	    -21.48566675	      2.95574374	     -2.02751612	      0.18513288	     16.57890148	     -2.47381831	      0.19864405	     21.64788011	      0.38999752	     -3.87699582	      6.14078874	     -3.37233156	     -5.31054720	      2.18450250	    -14.51845311	      6.18124204	      8.34699952
      1.13300000	      0.45120497	     -0.85304911	     -2.70625011	     -0.03401263	      0.97499805	      0.32650568	    -21.62504888	      2.74672659	     -2.27804320	     -0.35306632	     16.82441569	     -2.11495079	      0.28117474	     21.63200329	      0.63486487	     -3.72970884	      5.97292104	     -3.55572996	     -5.68938486	      2.23318944	    -14.51792921	      5.98521594	      8.33341362
      1.13716667	      0.47907931	     -0.68497250	     -2.67602862	     -0.02800452	      0.97426305	      0.32609639	    -21.74797388	      2.51487163	     -2.51933122	     -0.92845655	     17.05608977	     -1.77668633	      0.37126436	     21.62021298	      0.89670859	     -3.54995507	      5.72679243	     -3.80360457	     -6.14387844	      2.29446815	    -14.51553003	      5.77120746	      8.30914914
      1.14133333	      0.49633207	     -0.50246641	     -2.64272506	     -0.02196381	      0.97356123	      0.32567905	    -21.83764854	      2.26763548	     -2.76309356	     -1.55076797	     17.27942874	     -1.44399217	      0.46954766	     21.62740318	      1.16999840	     -3.33901369	      5.40238622	     -4.11894296	     -6.67280025	      2.36701169	    -14.49049089	      5.53600962	      8.27864201
      1.14550000	      0.52187593	     -0.30272601	     -2.60642411	     -0.01589521	      0.97291494	      0.32524576	    -21.91507920	      2.00046862	     -3.01348190	     -2.21833759	     17.47908467	     -1.12435359	      0.58308719	     21.62954173	      1.46024313	     -3.09490977	      5.01419911	     -4.49654301	     -7.28160368	      2.45466862	    -14.47687115	      5.28230789	      8.23803824
      1.14966667	      0.53169565	     -0.09163348	     -2.57048583	     -0.00979883	      0.97229890	      0.32479793	    -21.95439875	      1.71941223	     -3.25222911	     -2.93121551	     17.65708847	     -0.82311640	      0.71132389	     21.65829484	      1.75959197	     -2.83355355	      4.55642028	     -4.94195049	     -7.94604289	      2.55236850	    -14.44368511	      5.01743931	      8.19147686
      1.15383333	      0.54485431	      0.13063368	     -2.52682850	     -0.00368055	      0.97172718	      0.32432827	    -21.97881678	      1.42660175	     -3.49126245	     -3.68353839	     17.80962683	     -0.53434186	      0.85806110	     21.69145836	      2.07190307	     -2.54658376	      4.04120059	     -5.45236989	     -8.67787035	      2.66094199	    -14.41002037	      4.73616164	      8.13290159
      1.15800000	      0.53943529	      0.38139734	     -2.48596670	      0.00247678	      0.97118349	      0.32385581	    -21.97054827	      1.10332464	     -3.70115862	     -4.46296111	     17.93317970	     -0.29529045	      1.01149585	     21.75052566	      2.40965114	     -2.26019907	      3.47490924	     -6.00798640	     -9.41521225	      2.76501567	    -14.36625614	      4.42194315	      8.06542299
      1.16216667	      0.54928604	      0.61475685	     -2.43874163	      0.00863117	      0.97070253	      0.32335345	    -21.94376017	      0.79476622	     -3.95027138	     -5.31408501	     18.01877789	     -0.03898429	      1.20311434	     21.80694996	      2.73362754	     -1.95384078	      2.85168057	     -6.62112672	    -10.25656583	      2.88247024	    -14.31174467	      4.13664773	      7.99968031
      1.16633333	      0.53831600	      0.86772231	     -2.39227576	      0.01480378	      0.97024290	      0.32283636	    -21.87838198	      0.46436074	     -4.16389937	     -6.19651206	     18.06939179	      0.17840169	      1.42640144	     21.89380118	      3.07563547	     -1.64784365	      2.18604128	     -7.26943355	    -11.09104122	      3.00072262	    -14.25209505	      3.82370661	      7.92236158
      1.17050000	      0.52586695	      1.12762904	     -2.33772735	      0.02099755	      0.96982918	      0.32229573	    -21.79155724	      0.12803534	     -4.37261898	     -7.12131321	     18.07131672	      0.35868657	      1.68506171	     21.99053943	      3.42800941	     -1.34296505	      1.48156114	     -7.93709550	    -11.93937738	      3.11460196	    -14.18899258	      3.50030786	      7.83587724
      1.17466667	      0.50470901	      1.39344403	     -2.28440355	      0.02719924	      0.96945344	      0.32175118	    -21.67564931	     -0.21533917	     -4.55985317	     -8.08359439	     18.03050733	      0.49883622	      1.97470520	     22.10931781	      3.78488335	     -1.06123939	      0.73334732	     -8.61901323	    -12.77767088	      3.21627193	    -14.11220354	      3.17385240	      7.74921020
